<svg id="logo" width="23.382mm" height="21.614mm" version="1.1" viewBox="0 0 23.382 21.614" xmlns="http://www.w3.org/2000/svg">
  <title>Logo</title>
  <g transform="translate(-113.27 -29.643)">
    <g transform="translate(52.917 -35.719)">
      <path transform="matrix(.26458 0 0 .26458 29.482 43)" d="m152.48 114.39c0.46875 1.8021 0.70312 3.7917 0.70312 5.9688 0 2.1667-0.18229 4.1875-0.54687 6.0625-0.36459 1.8646-0.88021 3.5885-1.5469 5.1719s-1.4635 3.0156-2.3906 4.2969c-0.91667 1.2708-1.9375 2.3594-3.0625 3.2656-2.3125 1.8542-4.8281 2.7812-7.5469 2.7812-0.42708 0-0.70312-0.13542-0.82812-0.40625s-0.1875-0.59896-0.1875-0.98437v-1.9062c0-0.91667-5e-3 -2.026-0.0156-3.3281 0-1.3021-5e-3 -2.7552-0.0156-4.3594-0.0104-1.6042-0.026-3.2656-0.0469-4.9844-0.0208-1.7188-0.0416-3.4479-0.0625-5.1875-0.0208-1.75-0.0468-3.4219-0.0781-5.0156-0.0937-3.3125-0.19792-5.9219-0.3125-7.8281-0.0729-1 0.36979-1.5573 1.3281-1.6719 1.4167-0.20833 2.5833-0.3125 3.5-0.3125 5.9271 0 9.6302 2.8125 11.109 8.4375zm-13.188 25.469c1.6667-0.0625 3.3281-0.77601 4.9844-2.1406 3.0625-2.5521 5.1094-6.3594 6.1406-11.422 0.35417-1.7396 0.53125-3.7135 0.53125-5.9219s-0.27083-4.125-0.8125-5.75c-0.53125-1.6354-1.224-2.9375-2.0781-3.9062-1.6146-1.8333-3.6875-2.75-6.2188-2.75-1.1146 0-2.0156 0.11979-2.7031 0.35937-0.11459 1.5104-0.17188 3.6406-0.17188 6.3906 0 3.2917 5e-3 5.8073 0.0156 7.5469 0.0104 1.7396 0.026 3.4427 0.0469 5.1094 0.0313 1.6667 0.0573 3.2656 0.0781 4.7969 0.0208 1.5208 0.0468 2.8906 0.0781 4.1094 0.0417 1.5208 0.0781 2.7135 0.10938 3.5781zm20.365-33.953c0.89583 0 1.3438 0.64062 1.3438 1.9219 0 1.75-0.0104 3.5885-0.0312 5.5156-0.0208 1.9167-0.0416 3.6615-0.0625 5.2344-0.0104 1.5625-0.0208 3.3802-0.0312 5.4531-0.0313 4.3229-0.0625 9.6302-0.0937 15.922 2.9375 0.0521 5.7552-0.0521 8.4531-0.3125 0.53125-0.0625 0.94271 0.0469 1.2344 0.32812 0.30208 0.28125 0.45312 0.57813 0.45312 0.89063s-0.13542 0.58333-0.40625 0.8125c-0.26041 0.21875-0.65104 0.3177-1.1719 0.29687-1.6771-0.13541-3.4896-0.16665-5.4375-0.0937-1.9375 0.0729-3.1042 0.13542-3.5 0.1875-0.39583 0.0625-0.6875 0.0729-0.875 0.0312-0.1875-0.0313-0.35417-0.10418-0.5-0.21875-0.32292-0.25-0.46875-0.61979-0.4375-1.1094 0.17708-3.4479 0.26562-7.9583 0.26562-13.531s-5e-3 -9.0156-0.0156-10.328c-0.0104-1.3229-0.0312-2.5417-0.0625-3.6562-0.0521-2.1979-0.17707-4.1719-0.375-5.9219-0.0417-0.46875 0.0677-0.82291 0.32812-1.0625 0.27083-0.23958 0.57813-0.35937 0.92188-0.35937zm44.747 33.344c0.19792 0.15625 0.35417 0.35417 0.46875 0.59375 0.11459 0.22917 0.17188 0.51563 0.17188 0.85938s-0.0677 0.63541-0.20313 0.875c-0.125 0.23958-0.29167 0.43229-0.5 0.57812-0.39583 0.27083-0.86979 0.40625-1.4219 0.40625-0.78125 0-1.3386-0.35417-1.6719-1.0625-0.10417-0.23958-0.15625-0.51041-0.15625-0.8125 0-0.88541 0.42708-1.4792 1.2812-1.7812 0.23959-0.0729 0.47396-0.10937 0.70313-0.10937s0.45833 0.0365 0.6875 0.10937c0.23958 0.0729 0.45312 0.1875 0.64062 0.34375z" fill="white" />
      <path d="m78.915 81.463c-0.0143 0.02477-4.5617 2.6307-4.5864 2.645-0.02477 0.0143-4.5553 2.6495-4.5839 2.6495-0.0286 0-4.5591-2.6352-4.5839-2.6495-0.02477-0.0143-4.5721-2.6202-4.5864-2.645-0.0143-0.02477 0.0026-5.2659 0.0026-5.2945 0-0.0286-0.01689-5.2697-0.0026-5.2945 0.0143-0.02477 4.5617-2.6307 4.5864-2.645 0.02477-0.0143 4.5553-2.6495 4.5839-2.6495 0.0286 0 4.5591 2.6352 4.5839 2.6495 0.02477 0.0143 4.5721 2.6202 4.5864 2.645 0.0143 0.02477-0.0026 5.2659-0.0026 5.2945 0 0.0286 0.01689 5.2697 0.0026 5.2945z" fill="#1d62cb" stroke="white" stroke-linecap="round" stroke-linejoin="round" stroke-width=".6633"/>
    </g>
  </g>
</svg>